<svg id="visual" viewBox="0 0 1000 600" width="900" height="600" xmlns="http://www.w3.org/2000/svg" xmlns:xlink="http://www.w3.org/1999/xlink" version="1.1"><rect x="0" y="0" width="900" height="600" fill="#1B1616"></rect><path d="M0 433L18.8 437.2C37.7 441.3 75.3 449.7 112.8 454.8C150.3 460 187.7 462 225.2 459.2C262.7 456.3 300.3 448.7 337.8 444C375.3 439.3 412.7 437.7 450.2 442C487.7 446.3 525.3 456.7 562.8 455.5C600.3 454.3 637.7 441.7 675.2 433.7C712.7 425.7 750.3 422.3 787.8 422.2C825.3 422 862.7 425 881.3 426.5L900 428L900 601L881.3 601C862.7 601 825.3 601 787.8 601C750.3 601 712.7 601 675.2 601C637.7 601 600.3 601 562.8 601C525.3 601 487.7 601 450.2 601C412.7 601 375.3 601 337.8 601C300.3 601 262.7 601 225.2 601C187.7 601 150.3 601 112.8 601C75.3 601 37.7 601 18.8 601L0 601Z" fill="#17a6e8"></path><path d="M0 472L18.8 471.8C37.7 471.7 75.3 471.3 112.8 472.8C150.3 474.3 187.7 477.7 225.2 476C262.7 474.3 300.3 467.7 337.8 466.3C375.3 465 412.7 469 450.2 472.5C487.7 476 525.3 479 562.8 482.5C600.3 486 637.7 490 675.2 489.5C712.7 489 750.3 484 787.8 478.5C825.3 473 862.7 467 881.3 464L900 461L900 601L881.3 601C862.7 601 825.3 601 787.8 601C750.3 601 712.7 601 675.2 601C637.7 601 600.3 601 562.8 601C525.3 601 487.7 601 450.2 601C412.7 601 375.3 601 337.8 601C300.3 601 262.7 601 225.2 601C187.7 601 150.3 601 112.8 601C75.3 601 37.7 601 18.8 601L0 601Z" fill="#81a5f9"></path><path d="M0 498L18.8 502.8C37.7 507.7 75.3 517.3 112.8 518.7C150.3 520 187.7 513 225.2 512.5C262.7 512 300.3 518 337.8 517C375.3 516 412.7 508 450.2 505.7C487.7 503.3 525.3 506.7 562.8 511.2C600.3 515.7 637.7 521.3 675.2 521C712.7 520.7 750.3 514.3 787.8 510.7C825.3 507 862.7 506 881.3 505.5L900 505L900 601L881.3 601C862.7 601 825.3 601 787.8 601C750.3 601 712.7 601 675.2 601C637.7 601 600.3 601 562.8 601C525.3 601 487.7 601 450.2 601C412.7 601 375.3 601 337.8 601C300.3 601 262.7 601 225.2 601C187.7 601 150.3 601 112.8 601C75.3 601 37.7 601 18.8 601L0 601Z" fill="#c7a0f6"></path><path d="M0 548L18.8 548.3C37.7 548.7 75.3 549.3 112.8 551C150.3 552.7 187.7 555.3 225.2 557.3C262.7 559.3 300.3 560.7 337.8 560.3C375.3 560 412.7 558 450.2 554.2C487.7 550.3 525.3 544.7 562.8 543C600.3 541.3 637.7 543.7 675.2 546.8C712.7 550 750.3 554 787.8 556C825.3 558 862.7 558 881.3 558L900 558L900 601L881.3 601C862.7 601 825.3 601 787.8 601C750.3 601 712.7 601 675.2 601C637.7 601 600.3 601 562.8 601C525.3 601 487.7 601 450.2 601C412.7 601 375.3 601 337.8 601C300.3 601 262.7 601 225.2 601C187.7 601 150.3 601 112.8 601C75.3 601 37.7 601 18.8 601L0 601Z" fill="#fe9ce3"></path></svg>